<mxfile host="app.diagrams.net" agent="Mozilla/5.0 (Windows NT 10.0; Win64; x64) AppleWebKit/537.36 (KHTML, like Gecko) Chrome/131.0.0.0 Safari/537.36" version="26.0.6">
  <diagram name="Сторінка-1" id="lQlykuT76nLz_-_hPbVb">
    <mxGraphModel dx="2722" dy="2461" grid="0" gridSize="10" guides="1" tooltips="1" connect="1" arrows="1" fold="1" page="1" pageScale="1" pageWidth="827" pageHeight="1169" math="0" shadow="0">
      <root>
        <mxCell id="0" />
        <mxCell id="1" parent="0" />
        <mxCell id="YlhcBeEanbGtURB7-T1P-1" value="ESP32" style="rounded=0;whiteSpace=wrap;html=1;fillColor=#d0cee2;strokeColor=#56517e;" parent="1" vertex="1">
          <mxGeometry x="499" y="220" width="250" height="460" as="geometry" />
        </mxCell>
        <mxCell id="YlhcBeEanbGtURB7-T1P-2" value="GPS&amp;nbsp;&lt;br&gt;&amp;nbsp;GY-GPS6MV2&amp;nbsp;&lt;br&gt;module" style="rounded=1;whiteSpace=wrap;html=1;fillColor=#b1ddf0;strokeColor=#10739e;" parent="1" vertex="1">
          <mxGeometry x="949" y="230" width="120" height="90" as="geometry" />
        </mxCell>
        <mxCell id="YlhcBeEanbGtURB7-T1P-3" value="GSM&amp;nbsp;&lt;br&gt;SIM800L module" style="rounded=1;whiteSpace=wrap;html=1;fillColor=#fa6800;strokeColor=#C73500;fontColor=#000000;" parent="1" vertex="1">
          <mxGeometry x="949" y="350" width="120" height="90" as="geometry" />
        </mxCell>
        <mxCell id="YlhcBeEanbGtURB7-T1P-4" value="MicroSD card" style="rounded=1;whiteSpace=wrap;html=1;fillColor=#f8cecc;strokeColor=#b85450;" parent="1" vertex="1">
          <mxGeometry x="949" y="500" width="120" height="90" as="geometry" />
        </mxCell>
        <mxCell id="YlhcBeEanbGtURB7-T1P-5" value="BME280" style="rounded=1;whiteSpace=wrap;html=1;fillColor=#00FF00;fontColor=#ffffff;strokeColor=#99FF33;" parent="1" vertex="1">
          <mxGeometry x="609" y="1063" width="90" height="70" as="geometry" />
        </mxCell>
        <mxCell id="YlhcBeEanbGtURB7-T1P-6" value="MPU5060" style="rounded=1;whiteSpace=wrap;html=1;fillColor=#a0522d;fontColor=#ffffff;strokeColor=#6D1F00;" parent="1" vertex="1">
          <mxGeometry x="747" y="952" width="90" height="70" as="geometry" />
        </mxCell>
        <mxCell id="YlhcBeEanbGtURB7-T1P-7" value="PCA9536D" style="rounded=1;whiteSpace=wrap;html=1;fillColor=#6d8764;fontColor=#ffffff;strokeColor=#3A5431;" parent="1" vertex="1">
          <mxGeometry x="749" y="808.25" width="77" height="122.45" as="geometry" />
        </mxCell>
        <mxCell id="YlhcBeEanbGtURB7-T1P-8" value="USB" style="rounded=1;whiteSpace=wrap;html=1;fillColor=#76608a;fontColor=#ffffff;strokeColor=#432D57;" parent="1" vertex="1">
          <mxGeometry x="574" y="50" width="100" height="70" as="geometry" />
        </mxCell>
        <mxCell id="YlhcBeEanbGtURB7-T1P-25" value="" style="edgeStyle=orthogonalEdgeStyle;rounded=0;orthogonalLoop=1;jettySize=auto;html=1;" parent="1" source="YlhcBeEanbGtURB7-T1P-9" target="YlhcBeEanbGtURB7-T1P-24" edge="1">
          <mxGeometry relative="1" as="geometry" />
        </mxCell>
        <mxCell id="YlhcBeEanbGtURB7-T1P-50" value="" style="edgeStyle=orthogonalEdgeStyle;rounded=0;orthogonalLoop=1;jettySize=auto;html=1;" parent="1" source="YlhcBeEanbGtURB7-T1P-9" target="YlhcBeEanbGtURB7-T1P-48" edge="1">
          <mxGeometry relative="1" as="geometry" />
        </mxCell>
        <mxCell id="YlhcBeEanbGtURB7-T1P-9" value="Battery" style="rounded=1;whiteSpace=wrap;html=1;fillColor=#008a00;strokeColor=#005700;fontColor=#ffffff;" parent="1" vertex="1">
          <mxGeometry x="59" y="270" width="190" height="50" as="geometry" />
        </mxCell>
        <mxCell id="YlhcBeEanbGtURB7-T1P-10" value="Charger/protection" style="rounded=1;whiteSpace=wrap;html=1;fillColor=#76608a;fontColor=#ffffff;strokeColor=#432D57;" parent="1" vertex="1">
          <mxGeometry x="89" y="140" width="130" height="70" as="geometry" />
        </mxCell>
        <mxCell id="YlhcBeEanbGtURB7-T1P-11" value="DC/DC Step up (4V)&lt;br&gt;(For GSM module)" style="rounded=1;whiteSpace=wrap;html=1;fillColor=#d80073;fontColor=#ffffff;strokeColor=#A50040;" parent="1" vertex="1">
          <mxGeometry x="9" y="535" width="130" height="70" as="geometry" />
        </mxCell>
        <mxCell id="YlhcBeEanbGtURB7-T1P-12" value="linear voltage stabilizer 3.3 V (for all)" style="rounded=1;whiteSpace=wrap;html=1;fillColor=#d80073;fontColor=#ffffff;strokeColor=#A50040;" parent="1" vertex="1">
          <mxGeometry x="169" y="535" width="130" height="70" as="geometry" />
        </mxCell>
        <mxCell id="YlhcBeEanbGtURB7-T1P-14" value="Firmware and terminal" style="text;html=1;align=center;verticalAlign=middle;resizable=0;points=[];autosize=1;strokeColor=none;fillColor=none;" parent="1" vertex="1">
          <mxGeometry x="469" y="150" width="140" height="30" as="geometry" />
        </mxCell>
        <mxCell id="YlhcBeEanbGtURB7-T1P-16" value="" style="shape=flexArrow;endArrow=classic;startArrow=classic;html=1;rounded=0;entryX=0.5;entryY=1;entryDx=0;entryDy=0;exitX=0.5;exitY=0;exitDx=0;exitDy=0;" parent="1" source="YlhcBeEanbGtURB7-T1P-1" target="YlhcBeEanbGtURB7-T1P-8" edge="1">
          <mxGeometry width="100" height="100" relative="1" as="geometry">
            <mxPoint x="449" y="320" as="sourcePoint" />
            <mxPoint x="549" y="220" as="targetPoint" />
          </mxGeometry>
        </mxCell>
        <mxCell id="YlhcBeEanbGtURB7-T1P-17" value="" style="endArrow=classic;html=1;rounded=0;entryX=0.5;entryY=0;entryDx=0;entryDy=0;" parent="1" target="YlhcBeEanbGtURB7-T1P-10" edge="1">
          <mxGeometry width="50" height="50" relative="1" as="geometry">
            <mxPoint x="399" y="90" as="sourcePoint" />
            <mxPoint x="409" y="250" as="targetPoint" />
            <Array as="points">
              <mxPoint x="154" y="90" />
            </Array>
          </mxGeometry>
        </mxCell>
        <mxCell id="YlhcBeEanbGtURB7-T1P-18" value="5V" style="text;html=1;align=center;verticalAlign=middle;resizable=0;points=[];autosize=1;strokeColor=none;fillColor=none;" parent="1" vertex="1">
          <mxGeometry x="359" y="60" width="40" height="30" as="geometry" />
        </mxCell>
        <mxCell id="YlhcBeEanbGtURB7-T1P-19" value="" style="endArrow=classic;html=1;rounded=0;exitX=0.5;exitY=1;exitDx=0;exitDy=0;entryX=0.5;entryY=0;entryDx=0;entryDy=0;" parent="1" source="YlhcBeEanbGtURB7-T1P-10" target="YlhcBeEanbGtURB7-T1P-9" edge="1">
          <mxGeometry width="50" height="50" relative="1" as="geometry">
            <mxPoint x="339" y="340" as="sourcePoint" />
            <mxPoint x="389" y="290" as="targetPoint" />
          </mxGeometry>
        </mxCell>
        <mxCell id="YlhcBeEanbGtURB7-T1P-22" value="" style="endArrow=classic;html=1;rounded=0;exitX=-0.043;exitY=0.567;exitDx=0;exitDy=0;entryX=0;entryY=0.5;entryDx=0;entryDy=0;exitPerimeter=0;" parent="1" source="YlhcBeEanbGtURB7-T1P-8" target="YlhcBeEanbGtURB7-T1P-24" edge="1">
          <mxGeometry width="50" height="50" relative="1" as="geometry">
            <mxPoint x="404" y="90" as="sourcePoint" />
            <mxPoint x="29" y="375" as="targetPoint" />
            <Array as="points">
              <mxPoint x="29" y="90" />
              <mxPoint x="29" y="415" />
            </Array>
          </mxGeometry>
        </mxCell>
        <mxCell id="YlhcBeEanbGtURB7-T1P-24" value="Power switcher" style="rounded=1;whiteSpace=wrap;html=1;fillColor=#d80073;fontColor=#ffffff;strokeColor=#A50040;" parent="1" vertex="1">
          <mxGeometry x="89" y="380" width="130" height="70" as="geometry" />
        </mxCell>
        <mxCell id="YlhcBeEanbGtURB7-T1P-26" value="" style="endArrow=classic;html=1;rounded=0;exitX=0.5;exitY=1;exitDx=0;exitDy=0;entryX=0.463;entryY=0.021;entryDx=0;entryDy=0;entryPerimeter=0;" parent="1" source="YlhcBeEanbGtURB7-T1P-24" target="YlhcBeEanbGtURB7-T1P-12" edge="1">
          <mxGeometry width="50" height="50" relative="1" as="geometry">
            <mxPoint x="309" y="420" as="sourcePoint" />
            <mxPoint x="359" y="370" as="targetPoint" />
          </mxGeometry>
        </mxCell>
        <mxCell id="YlhcBeEanbGtURB7-T1P-27" value="" style="endArrow=classic;html=1;rounded=0;exitX=0.5;exitY=1;exitDx=0;exitDy=0;entryX=0.5;entryY=0;entryDx=0;entryDy=0;" parent="1" source="YlhcBeEanbGtURB7-T1P-24" target="YlhcBeEanbGtURB7-T1P-11" edge="1">
          <mxGeometry width="50" height="50" relative="1" as="geometry">
            <mxPoint x="309" y="420" as="sourcePoint" />
            <mxPoint x="359" y="370" as="targetPoint" />
          </mxGeometry>
        </mxCell>
        <mxCell id="YlhcBeEanbGtURB7-T1P-35" value="" style="shape=flexArrow;endArrow=classic;startArrow=classic;html=1;rounded=0;entryX=0;entryY=0.5;entryDx=0;entryDy=0;exitX=1.017;exitY=0.117;exitDx=0;exitDy=0;exitPerimeter=0;" parent="1" source="YlhcBeEanbGtURB7-T1P-1" target="YlhcBeEanbGtURB7-T1P-2" edge="1">
          <mxGeometry width="100" height="100" relative="1" as="geometry">
            <mxPoint x="859" y="520" as="sourcePoint" />
            <mxPoint x="879" y="274.9949999999999" as="targetPoint" />
          </mxGeometry>
        </mxCell>
        <mxCell id="YlhcBeEanbGtURB7-T1P-36" value="UART" style="text;html=1;align=center;verticalAlign=middle;resizable=0;points=[];autosize=1;strokeColor=none;fillColor=none;" parent="1" vertex="1">
          <mxGeometry x="789" y="230" width="60" height="30" as="geometry" />
        </mxCell>
        <mxCell id="YlhcBeEanbGtURB7-T1P-37" value="" style="shape=flexArrow;endArrow=classic;startArrow=classic;html=1;rounded=0;exitX=1.017;exitY=0.117;exitDx=0;exitDy=0;exitPerimeter=0;" parent="1" target="YlhcBeEanbGtURB7-T1P-3" edge="1">
          <mxGeometry width="100" height="100" relative="1" as="geometry">
            <mxPoint x="749" y="394.5" as="sourcePoint" />
            <mxPoint x="875" y="395.5" as="targetPoint" />
          </mxGeometry>
        </mxCell>
        <mxCell id="YlhcBeEanbGtURB7-T1P-38" value="UART" style="text;html=1;align=center;verticalAlign=middle;resizable=0;points=[];autosize=1;strokeColor=none;fillColor=none;" parent="1" vertex="1">
          <mxGeometry x="789" y="360" width="60" height="30" as="geometry" />
        </mxCell>
        <mxCell id="YlhcBeEanbGtURB7-T1P-41" value="" style="shape=flexArrow;endArrow=classic;startArrow=classic;html=1;rounded=0;exitX=1.017;exitY=0.117;exitDx=0;exitDy=0;exitPerimeter=0;" parent="1" edge="1">
          <mxGeometry width="100" height="100" relative="1" as="geometry">
            <mxPoint x="749" y="550" as="sourcePoint" />
            <mxPoint x="949" y="550.5" as="targetPoint" />
          </mxGeometry>
        </mxCell>
        <mxCell id="YlhcBeEanbGtURB7-T1P-42" value="SPI" style="text;html=1;align=center;verticalAlign=middle;resizable=0;points=[];autosize=1;strokeColor=none;fillColor=none;" parent="1" vertex="1">
          <mxGeometry x="829" y="510" width="40" height="30" as="geometry" />
        </mxCell>
        <mxCell id="YlhcBeEanbGtURB7-T1P-43" value="" style="shape=flexArrow;endArrow=classic;startArrow=classic;html=1;rounded=0;entryX=0.598;entryY=1.006;entryDx=0;entryDy=0;entryPerimeter=0;" parent="1" target="YlhcBeEanbGtURB7-T1P-1" edge="1">
          <mxGeometry width="100" height="100" relative="1" as="geometry">
            <mxPoint x="650" y="1062" as="sourcePoint" />
            <mxPoint x="719" y="550" as="targetPoint" />
          </mxGeometry>
        </mxCell>
        <mxCell id="YlhcBeEanbGtURB7-T1P-44" value="I2C" style="text;html=1;align=center;verticalAlign=middle;resizable=0;points=[];autosize=1;strokeColor=none;fillColor=none;" parent="1" vertex="1">
          <mxGeometry x="668" y="683.12" width="40" height="30" as="geometry" />
        </mxCell>
        <mxCell id="YlhcBeEanbGtURB7-T1P-47" value="" style="endArrow=classic;html=1;rounded=0;entryX=-0.003;entryY=0.225;entryDx=0;entryDy=0;entryPerimeter=0;exitX=1;exitY=0.5;exitDx=0;exitDy=0;" parent="1" source="YlhcBeEanbGtURB7-T1P-48" target="YlhcBeEanbGtURB7-T1P-1" edge="1">
          <mxGeometry width="50" height="50" relative="1" as="geometry">
            <mxPoint x="429" y="320" as="sourcePoint" />
            <mxPoint x="649" y="400" as="targetPoint" />
          </mxGeometry>
        </mxCell>
        <mxCell id="YlhcBeEanbGtURB7-T1P-48" value="voltage divider&lt;br&gt;(get battery voltage)" style="rounded=1;whiteSpace=wrap;html=1;fillColor=#ffcc99;strokeColor=#36393d;" parent="1" vertex="1">
          <mxGeometry x="289" y="270" width="130" height="50" as="geometry" />
        </mxCell>
        <mxCell id="YlhcBeEanbGtURB7-T1P-49" value="ADC" style="text;html=1;align=center;verticalAlign=middle;resizable=0;points=[];autosize=1;strokeColor=none;fillColor=none;" parent="1" vertex="1">
          <mxGeometry x="434" y="278" width="50" height="30" as="geometry" />
        </mxCell>
        <mxCell id="1KMpHQk5PXUoUrPZShmF-5" style="edgeStyle=orthogonalEdgeStyle;rounded=0;orthogonalLoop=1;jettySize=auto;html=1;" parent="1" source="7OEHtTSeNIAFF6rPtCQs-1" edge="1">
          <mxGeometry relative="1" as="geometry">
            <mxPoint x="2143" y="-207.55550130208348" as="targetPoint" />
          </mxGeometry>
        </mxCell>
        <mxCell id="7OEHtTSeNIAFF6rPtCQs-1" value="Start (app_main)" style="rounded=1;whiteSpace=wrap;html=1;" parent="1" vertex="1">
          <mxGeometry x="2079" y="-312" width="128" height="54.12" as="geometry" />
        </mxCell>
        <mxCell id="IAE02krrpLUfDQyFtPKX-46" value="" style="edgeStyle=orthogonalEdgeStyle;rounded=0;orthogonalLoop=1;jettySize=auto;html=1;" parent="1" source="IAE02krrpLUfDQyFtPKX-19" target="IAE02krrpLUfDQyFtPKX-45" edge="1">
          <mxGeometry relative="1" as="geometry" />
        </mxCell>
        <mxCell id="IAE02krrpLUfDQyFtPKX-19" value="Command: restart" style="rounded=1;whiteSpace=wrap;html=1;fillColor=#a20025;fontColor=#ffffff;strokeColor=#6F0000;" parent="1" vertex="1">
          <mxGeometry x="2513" y="558.18" width="152" height="58" as="geometry" />
        </mxCell>
        <mxCell id="IAE02krrpLUfDQyFtPKX-20" value="Command: Get bttery status" style="rounded=1;whiteSpace=wrap;html=1;" parent="1" vertex="1">
          <mxGeometry x="1368" y="1900" width="152" height="58" as="geometry" />
        </mxCell>
        <mxCell id="RXZ0eFl1-a3viZHCUMng-64" style="edgeStyle=orthogonalEdgeStyle;rounded=0;orthogonalLoop=1;jettySize=auto;html=1;entryX=0.5;entryY=0;entryDx=0;entryDy=0;" parent="1" source="IAE02krrpLUfDQyFtPKX-34" target="RXZ0eFl1-a3viZHCUMng-47" edge="1">
          <mxGeometry relative="1" as="geometry">
            <Array as="points">
              <mxPoint x="3361" y="358" />
              <mxPoint x="3787" y="358" />
            </Array>
          </mxGeometry>
        </mxCell>
        <mxCell id="IAE02krrpLUfDQyFtPKX-34" value="Command: logON" style="rounded=1;whiteSpace=wrap;html=1;fillColor=#a20025;fontColor=#ffffff;strokeColor=#6F0000;" parent="1" vertex="1">
          <mxGeometry x="2511" y="331.00000000000006" width="128" height="54.12" as="geometry" />
        </mxCell>
        <mxCell id="IAE02krrpLUfDQyFtPKX-37" value="Command: logOFF" style="rounded=1;whiteSpace=wrap;html=1;fillColor=#a20025;fontColor=#ffffff;strokeColor=#6F0000;" parent="1" vertex="1">
          <mxGeometry x="2513" y="426.00000000000006" width="128" height="54.12" as="geometry" />
        </mxCell>
        <mxCell id="IAE02krrpLUfDQyFtPKX-41" value="" style="endArrow=classic;html=1;rounded=0;exitX=1;exitY=0.5;exitDx=0;exitDy=0;entryX=0.5;entryY=0;entryDx=0;entryDy=0;" parent="1" source="IAE02krrpLUfDQyFtPKX-37" target="RXZ0eFl1-a3viZHCUMng-1" edge="1">
          <mxGeometry width="50" height="50" relative="1" as="geometry">
            <mxPoint x="3076" y="509.70000000000005" as="sourcePoint" />
            <mxPoint x="3236" y="549.9600000000005" as="targetPoint" />
            <Array as="points">
              <mxPoint x="3544" y="452.7" />
            </Array>
          </mxGeometry>
        </mxCell>
        <mxCell id="RXZ0eFl1-a3viZHCUMng-14" style="edgeStyle=orthogonalEdgeStyle;rounded=0;orthogonalLoop=1;jettySize=auto;html=1;exitX=0.534;exitY=1.02;exitDx=0;exitDy=0;exitPerimeter=0;" parent="1" source="IAE02krrpLUfDQyFtPKX-45" edge="1">
          <mxGeometry relative="1" as="geometry">
            <mxPoint x="3549.97" y="1098.88" as="targetPoint" />
            <mxPoint x="3376.9985714285717" y="645.9999999999999" as="sourcePoint" />
            <Array as="points">
              <mxPoint x="3378" y="1099" />
            </Array>
          </mxGeometry>
        </mxCell>
        <mxCell id="IAE02krrpLUfDQyFtPKX-45" value="Reset GSM module and ESP32" style="rounded=1;whiteSpace=wrap;html=1;fillColor=#1ba1e2;fontColor=#ffffff;strokeColor=#006EAF;" parent="1" vertex="1">
          <mxGeometry x="3305" y="559.8199999999999" width="136" height="54" as="geometry" />
        </mxCell>
        <mxCell id="IAE02krrpLUfDQyFtPKX-72" value="Init GPS" style="rounded=1;whiteSpace=wrap;html=1;fillColor=#1ba1e2;fontColor=#ffffff;strokeColor=#006EAF;" parent="1" vertex="1">
          <mxGeometry x="3728.5" y="551.0800000000002" width="128" height="54.12" as="geometry" />
        </mxCell>
        <mxCell id="AnVQf3OLI9KUwn47Dejs-8" value="" style="edgeStyle=orthogonalEdgeStyle;rounded=0;orthogonalLoop=1;jettySize=auto;html=1;" parent="1" source="IAE02krrpLUfDQyFtPKX-73" target="AnVQf3OLI9KUwn47Dejs-5" edge="1">
          <mxGeometry relative="1" as="geometry" />
        </mxCell>
        <mxCell id="IAE02krrpLUfDQyFtPKX-73" value="Init Micro SD Card" style="rounded=1;whiteSpace=wrap;html=1;fillColor=#1ba1e2;fontColor=#ffffff;strokeColor=#006EAF;" parent="1" vertex="1">
          <mxGeometry x="3728.5" y="631.0800000000002" width="128" height="54.12" as="geometry" />
        </mxCell>
        <mxCell id="IAE02krrpLUfDQyFtPKX-77" value="Init ADC (battery voltage)" style="rounded=1;whiteSpace=wrap;html=1;" parent="1" vertex="1">
          <mxGeometry x="1463" y="856.5" width="128" height="54.12" as="geometry" />
        </mxCell>
        <mxCell id="IAE02krrpLUfDQyFtPKX-78" value="" style="edgeStyle=orthogonalEdgeStyle;rounded=0;orthogonalLoop=1;jettySize=auto;html=1;" parent="1" source="IAE02krrpLUfDQyFtPKX-79" target="IAE02krrpLUfDQyFtPKX-82" edge="1">
          <mxGeometry relative="1" as="geometry" />
        </mxCell>
        <mxCell id="IAE02krrpLUfDQyFtPKX-79" value="Log data on file Micro SD Card" style="rounded=1;whiteSpace=wrap;html=1;fillColor=#1ba1e2;fontColor=#ffffff;strokeColor=#006EAF;" parent="1" vertex="1">
          <mxGeometry x="3728" y="889.7" width="128" height="54.12" as="geometry" />
        </mxCell>
        <mxCell id="IAE02krrpLUfDQyFtPKX-80" value="" style="edgeStyle=orthogonalEdgeStyle;rounded=0;orthogonalLoop=1;jettySize=auto;html=1;" parent="1" source="IAE02krrpLUfDQyFtPKX-81" target="IAE02krrpLUfDQyFtPKX-79" edge="1">
          <mxGeometry relative="1" as="geometry" />
        </mxCell>
        <mxCell id="IAE02krrpLUfDQyFtPKX-81" value="Convert GPS data in Google Earth format" style="rounded=1;whiteSpace=wrap;html=1;fillColor=#1ba1e2;fontColor=#ffffff;strokeColor=#006EAF;" parent="1" vertex="1">
          <mxGeometry x="3728" y="800.1400000000001" width="128" height="54.12" as="geometry" />
        </mxCell>
        <mxCell id="RXZ0eFl1-a3viZHCUMng-66" style="edgeStyle=orthogonalEdgeStyle;rounded=0;orthogonalLoop=1;jettySize=auto;html=1;" parent="1" source="IAE02krrpLUfDQyFtPKX-82" edge="1">
          <mxGeometry relative="1" as="geometry">
            <mxPoint x="3917.230769230769" y="1027.7" as="targetPoint" />
          </mxGeometry>
        </mxCell>
        <mxCell id="IAE02krrpLUfDQyFtPKX-82" value="SMS from GSM &quot;logOFF&quot;?" style="rhombus;whiteSpace=wrap;html=1;fillColor=#1ba1e2;fontColor=#ffffff;strokeColor=#006EAF;" parent="1" vertex="1">
          <mxGeometry x="3700" y="974.7" width="184" height="106" as="geometry" />
        </mxCell>
        <mxCell id="IAE02krrpLUfDQyFtPKX-83" value="Yes" style="text;html=1;align=center;verticalAlign=middle;resizable=0;points=[];autosize=1;strokeColor=none;fillColor=none;" parent="1" vertex="1">
          <mxGeometry x="3863" y="992.1400000000001" width="38" height="26" as="geometry" />
        </mxCell>
        <mxCell id="IAE02krrpLUfDQyFtPKX-86" value="No" style="text;html=1;align=center;verticalAlign=middle;resizable=0;points=[];autosize=1;strokeColor=none;fillColor=none;" parent="1" vertex="1">
          <mxGeometry x="3677" y="992.1400000000001" width="33" height="26" as="geometry" />
        </mxCell>
        <mxCell id="EyCy8aTWz1eDIl0mPeRE-1" value="Parametr: ON/OFF" style="rhombus;whiteSpace=wrap;html=1;" parent="1" vertex="1">
          <mxGeometry x="1304" y="1142.9000000000003" width="184" height="106" as="geometry" />
        </mxCell>
        <mxCell id="EyCy8aTWz1eDIl0mPeRE-2" value="Yes" style="text;html=1;align=center;verticalAlign=middle;resizable=0;points=[];autosize=1;strokeColor=none;fillColor=none;" parent="1" vertex="1">
          <mxGeometry x="1483" y="1164.0200000000002" width="38" height="26" as="geometry" />
        </mxCell>
        <mxCell id="EyCy8aTWz1eDIl0mPeRE-3" value="No" style="text;html=1;align=center;verticalAlign=middle;resizable=0;points=[];autosize=1;strokeColor=none;fillColor=none;" parent="1" vertex="1">
          <mxGeometry x="1271" y="1157.0200000000002" width="33" height="26" as="geometry" />
        </mxCell>
        <mxCell id="EyCy8aTWz1eDIl0mPeRE-4" value="Turn OFF wifi&amp;nbsp;" style="rounded=1;whiteSpace=wrap;html=1;" parent="1" vertex="1">
          <mxGeometry x="1220" y="1268.2199999999998" width="128" height="54.12" as="geometry" />
        </mxCell>
        <mxCell id="EyCy8aTWz1eDIl0mPeRE-5" value="" style="edgeStyle=orthogonalEdgeStyle;rounded=0;orthogonalLoop=1;jettySize=auto;html=1;" parent="1" source="EyCy8aTWz1eDIl0mPeRE-6" target="EyCy8aTWz1eDIl0mPeRE-7" edge="1">
          <mxGeometry relative="1" as="geometry" />
        </mxCell>
        <mxCell id="EyCy8aTWz1eDIl0mPeRE-6" value="Init and run WiFi server" style="rounded=1;whiteSpace=wrap;html=1;" parent="1" vertex="1">
          <mxGeometry x="1488" y="1272.9" width="136" height="54" as="geometry" />
        </mxCell>
        <mxCell id="EyCy8aTWz1eDIl0mPeRE-7" value="Load page (interface)" style="rounded=1;whiteSpace=wrap;html=1;" parent="1" vertex="1">
          <mxGeometry x="1488" y="1365.46" width="136" height="54" as="geometry" />
        </mxCell>
        <mxCell id="EyCy8aTWz1eDIl0mPeRE-8" value="Вікно в браузері:&lt;br&gt;1. Кнопки&lt;div&gt;&lt;span style=&quot;white-space: pre;&quot;&gt;&#x9;&lt;/span&gt;1. ON/OFF GPS.&lt;/div&gt;&lt;div&gt;&lt;span style=&quot;white-space: pre;&quot;&gt;&#x9;&lt;/span&gt;2. ON/OFF LOG.&lt;/div&gt;&lt;div&gt;&lt;span style=&quot;white-space: pre;&quot;&gt;&#x9;&lt;/span&gt;3. ON/OFF RGB LEDs&lt;/div&gt;&lt;div&gt;&lt;span style=&quot;white-space: pre;&quot;&gt;&#x9;&lt;/span&gt;4. Перезагрузка всього дівайсу.&lt;/div&gt;&lt;div&gt;&lt;span style=&quot;white-space: pre;&quot;&gt;&#x9;&lt;/span&gt;5. Задати як часто логувати дані.(1 сек до 60 сек)&lt;br&gt;2. Вікна з інформацією:&lt;div&gt;&lt;span style=&quot;white-space: pre;&quot;&gt;&#x9;&lt;/span&gt;1.Зарад батереї В процентах&lt;br&gt;&lt;span style=&quot;white-space: pre;&quot;&gt;&#x9;&lt;/span&gt;2. Координати GPS&lt;/div&gt;&lt;div style=&quot;&quot;&gt;&lt;span style=&quot;white-space: pre;&quot;&gt;&#x9;&lt;/span&gt;3. Температура&lt;/div&gt;&lt;div style=&quot;&quot;&gt;&lt;span style=&quot;white-space: pre;&quot;&gt;&#x9;&lt;/span&gt;4. Скільки вільного місця на флешці&lt;br&gt;&lt;span style=&quot;white-space: pre;&quot;&gt;&#x9;&lt;/span&gt;5. Дані з Micro SD Card (Скачування видаляння)&lt;br&gt;&lt;/div&gt;&lt;div&gt;&lt;br&gt;&lt;/div&gt;&lt;/div&gt;" style="text;html=1;align=left;verticalAlign=middle;resizable=0;points=[];autosize=1;strokeColor=none;fillColor=none;" parent="1" vertex="1">
          <mxGeometry x="1284" y="1464.9999999999995" width="320" height="214" as="geometry" />
        </mxCell>
        <mxCell id="RXZ0eFl1-a3viZHCUMng-3" style="edgeStyle=orthogonalEdgeStyle;rounded=0;orthogonalLoop=1;jettySize=auto;html=1;entryX=0.5;entryY=0;entryDx=0;entryDy=0;" parent="1" source="AnVQf3OLI9KUwn47Dejs-5" target="IAE02krrpLUfDQyFtPKX-81" edge="1">
          <mxGeometry relative="1" as="geometry" />
        </mxCell>
        <mxCell id="AnVQf3OLI9KUwn47Dejs-5" value="Get GPS data" style="rounded=1;whiteSpace=wrap;html=1;fillColor=#1ba1e2;fontColor=#ffffff;strokeColor=#006EAF;" parent="1" vertex="1">
          <mxGeometry x="3727.5" y="713.02" width="128" height="54.12" as="geometry" />
        </mxCell>
        <mxCell id="AnVQf3OLI9KUwn47Dejs-10" value="" style="endArrow=classic;html=1;rounded=0;exitX=0.5;exitY=1;exitDx=0;exitDy=0;" parent="1" source="IAE02krrpLUfDQyFtPKX-72" edge="1">
          <mxGeometry width="50" height="50" relative="1" as="geometry">
            <mxPoint x="3767.5" y="779.02" as="sourcePoint" />
            <mxPoint x="3791.5" y="631.02" as="targetPoint" />
          </mxGeometry>
        </mxCell>
        <mxCell id="RXZ0eFl1-a3viZHCUMng-2" style="edgeStyle=orthogonalEdgeStyle;rounded=0;orthogonalLoop=1;jettySize=auto;html=1;entryX=0.5;entryY=0;entryDx=0;entryDy=0;" parent="1" source="AnVQf3OLI9KUwn47Dejs-11" target="IAE02krrpLUfDQyFtPKX-72" edge="1">
          <mxGeometry relative="1" as="geometry" />
        </mxCell>
        <mxCell id="AnVQf3OLI9KUwn47Dejs-11" value="GSM SMS ansver (Start log GPS data)" style="rounded=1;whiteSpace=wrap;html=1;fillColor=#1ba1e2;fontColor=#ffffff;strokeColor=#006EAF;" parent="1" vertex="1">
          <mxGeometry x="3728" y="470.02" width="128" height="54.12" as="geometry" />
        </mxCell>
        <mxCell id="AnVQf3OLI9KUwn47Dejs-12" value="" style="endArrow=classic;html=1;rounded=0;entryX=0;entryY=0.5;entryDx=0;entryDy=0;exitX=0;exitY=0.473;exitDx=0;exitDy=0;exitPerimeter=0;" parent="1" source="IAE02krrpLUfDQyFtPKX-82" target="AnVQf3OLI9KUwn47Dejs-5" edge="1">
          <mxGeometry width="50" height="50" relative="1" as="geometry">
            <mxPoint x="3950" y="1065.14" as="sourcePoint" />
            <mxPoint x="4000" y="1015.1400000000001" as="targetPoint" />
            <Array as="points">
              <mxPoint x="3662" y="1025.14" />
              <mxPoint x="3662" y="740.1400000000001" />
            </Array>
          </mxGeometry>
        </mxCell>
        <mxCell id="RXZ0eFl1-a3viZHCUMng-9" style="edgeStyle=orthogonalEdgeStyle;rounded=0;orthogonalLoop=1;jettySize=auto;html=1;entryX=0.5;entryY=0;entryDx=0;entryDy=0;" parent="1" source="RXZ0eFl1-a3viZHCUMng-1" target="RXZ0eFl1-a3viZHCUMng-5" edge="1">
          <mxGeometry relative="1" as="geometry" />
        </mxCell>
        <mxCell id="RXZ0eFl1-a3viZHCUMng-1" value="GSM SMS ansver (Stop log GPS data)" style="rounded=1;whiteSpace=wrap;html=1;fillColor=#1ba1e2;fontColor=#ffffff;strokeColor=#006EAF;" parent="1" vertex="1">
          <mxGeometry x="3481" y="507.70000000000005" width="128" height="54.12" as="geometry" />
        </mxCell>
        <mxCell id="RXZ0eFl1-a3viZHCUMng-10" style="edgeStyle=orthogonalEdgeStyle;rounded=0;orthogonalLoop=1;jettySize=auto;html=1;entryX=0.5;entryY=0;entryDx=0;entryDy=0;" parent="1" source="RXZ0eFl1-a3viZHCUMng-5" target="RXZ0eFl1-a3viZHCUMng-7" edge="1">
          <mxGeometry relative="1" as="geometry" />
        </mxCell>
        <mxCell id="RXZ0eFl1-a3viZHCUMng-5" value="Deinit GPS" style="rounded=1;whiteSpace=wrap;html=1;fillColor=#1ba1e2;fontColor=#ffffff;strokeColor=#006EAF;" parent="1" vertex="1">
          <mxGeometry x="3481" y="583.5800000000002" width="128" height="54.12" as="geometry" />
        </mxCell>
        <mxCell id="RXZ0eFl1-a3viZHCUMng-7" value="Deinit Micro SD Card" style="rounded=1;whiteSpace=wrap;html=1;fillColor=#1ba1e2;fontColor=#ffffff;strokeColor=#006EAF;" parent="1" vertex="1">
          <mxGeometry x="3481" y="664.7" width="128" height="54.12" as="geometry" />
        </mxCell>
        <mxCell id="RXZ0eFl1-a3viZHCUMng-11" value="" style="endArrow=classic;html=1;rounded=0;exitX=0.5;exitY=1;exitDx=0;exitDy=0;" parent="1" source="RXZ0eFl1-a3viZHCUMng-7" edge="1">
          <mxGeometry width="50" height="50" relative="1" as="geometry">
            <mxPoint x="3415" y="753.9999999999999" as="sourcePoint" />
            <mxPoint x="2273" y="252" as="targetPoint" />
            <Array as="points">
              <mxPoint x="3541" y="1096" />
              <mxPoint x="3918" y="1102" />
              <mxPoint x="3917" y="259" />
            </Array>
          </mxGeometry>
        </mxCell>
        <mxCell id="RXZ0eFl1-a3viZHCUMng-15" value="Command: point" style="rounded=1;whiteSpace=wrap;html=1;fillColor=#a20025;fontColor=#ffffff;strokeColor=#6F0000;" parent="1" vertex="1">
          <mxGeometry x="2513" y="671.0600000000002" width="128" height="54.12" as="geometry" />
        </mxCell>
        <mxCell id="RXZ0eFl1-a3viZHCUMng-24" style="edgeStyle=orthogonalEdgeStyle;rounded=0;orthogonalLoop=1;jettySize=auto;html=1;entryX=0.5;entryY=0;entryDx=0;entryDy=0;" parent="1" source="RXZ0eFl1-a3viZHCUMng-17" target="RXZ0eFl1-a3viZHCUMng-21" edge="1">
          <mxGeometry relative="1" as="geometry" />
        </mxCell>
        <mxCell id="RXZ0eFl1-a3viZHCUMng-17" value="GSM SMS ansver (One point GPS START...)" style="rounded=1;whiteSpace=wrap;html=1;fillColor=#1ba1e2;fontColor=#ffffff;strokeColor=#006EAF;" parent="1" vertex="1">
          <mxGeometry x="3086" y="792.7" width="128" height="54.12" as="geometry" />
        </mxCell>
        <mxCell id="RXZ0eFl1-a3viZHCUMng-38" style="edgeStyle=orthogonalEdgeStyle;rounded=0;orthogonalLoop=1;jettySize=auto;html=1;" parent="1" source="RXZ0eFl1-a3viZHCUMng-19" edge="1">
          <mxGeometry relative="1" as="geometry">
            <mxPoint x="2983" y="1079.570381673177" as="targetPoint" />
          </mxGeometry>
        </mxCell>
        <mxCell id="RXZ0eFl1-a3viZHCUMng-19" value="Init GPS" style="rounded=1;whiteSpace=wrap;html=1;fillColor=#1ba1e2;fontColor=#ffffff;strokeColor=#006EAF;" parent="1" vertex="1">
          <mxGeometry x="2919" y="1001.7" width="128" height="54.12" as="geometry" />
        </mxCell>
        <mxCell id="RXZ0eFl1-a3viZHCUMng-28" style="edgeStyle=orthogonalEdgeStyle;rounded=0;orthogonalLoop=1;jettySize=auto;html=1;" parent="1" source="RXZ0eFl1-a3viZHCUMng-21" edge="1">
          <mxGeometry relative="1" as="geometry">
            <mxPoint x="3278.0635695684523" y="997.2397309802827" as="targetPoint" />
          </mxGeometry>
        </mxCell>
        <mxCell id="RXZ0eFl1-a3viZHCUMng-36" style="edgeStyle=orthogonalEdgeStyle;rounded=0;orthogonalLoop=1;jettySize=auto;html=1;entryX=0.529;entryY=0.014;entryDx=0;entryDy=0;entryPerimeter=0;" parent="1" target="RXZ0eFl1-a3viZHCUMng-19" edge="1">
          <mxGeometry relative="1" as="geometry">
            <mxPoint x="2986.2223307291665" y="971.5332926432293" as="targetPoint" />
            <mxPoint x="3041" y="944.7" as="sourcePoint" />
            <Array as="points">
              <mxPoint x="3042" y="944.7" />
              <mxPoint x="3042" y="943.7" />
              <mxPoint x="2987" y="943.7" />
            </Array>
          </mxGeometry>
        </mxCell>
        <mxCell id="RXZ0eFl1-a3viZHCUMng-21" value="If (GPS log == WORK STATUS?)" style="rhombus;whiteSpace=wrap;html=1;fillColor=#1ba1e2;fontColor=#ffffff;strokeColor=#006EAF;" parent="1" vertex="1">
          <mxGeometry x="3041" y="889.7" width="218" height="109" as="geometry" />
        </mxCell>
        <mxCell id="RXZ0eFl1-a3viZHCUMng-29" value="" style="edgeStyle=orthogonalEdgeStyle;rounded=0;orthogonalLoop=1;jettySize=auto;html=1;" parent="1" source="RXZ0eFl1-a3viZHCUMng-22" target="RXZ0eFl1-a3viZHCUMng-23" edge="1">
          <mxGeometry relative="1" as="geometry" />
        </mxCell>
        <mxCell id="RXZ0eFl1-a3viZHCUMng-22" value="Get one point GPS data" style="rounded=1;whiteSpace=wrap;html=1;fillColor=#1ba1e2;fontColor=#ffffff;strokeColor=#006EAF;" parent="1" vertex="1">
          <mxGeometry x="3214" y="1003.7" width="128" height="54.12" as="geometry" />
        </mxCell>
        <mxCell id="RXZ0eFl1-a3viZHCUMng-44" style="edgeStyle=orthogonalEdgeStyle;rounded=0;orthogonalLoop=1;jettySize=auto;html=1;exitX=0.5;exitY=1;exitDx=0;exitDy=0;entryX=0.5;entryY=0;entryDx=0;entryDy=0;" parent="1" source="RXZ0eFl1-a3viZHCUMng-23" target="RXZ0eFl1-a3viZHCUMng-34" edge="1">
          <mxGeometry relative="1" as="geometry">
            <mxPoint x="3152.333455403646" y="1407.7411653645836" as="targetPoint" />
            <mxPoint x="3214" y="1197.6966666666667" as="sourcePoint" />
            <Array as="points">
              <mxPoint x="3278" y="1272.7" />
              <mxPoint x="3152" y="1272.7" />
              <mxPoint x="3152" y="1328.7" />
            </Array>
          </mxGeometry>
        </mxCell>
        <mxCell id="RXZ0eFl1-a3viZHCUMng-23" value="Send data over SMS" style="rounded=1;whiteSpace=wrap;html=1;fillColor=#1ba1e2;fontColor=#ffffff;strokeColor=#006EAF;" parent="1" vertex="1">
          <mxGeometry x="3214" y="1089.7" width="128" height="54.12" as="geometry" />
        </mxCell>
        <mxCell id="RXZ0eFl1-a3viZHCUMng-25" value="No" style="text;html=1;align=center;verticalAlign=middle;resizable=0;points=[];autosize=1;strokeColor=none;fillColor=none;" parent="1" vertex="1">
          <mxGeometry x="3014" y="904.7" width="33" height="26" as="geometry" />
        </mxCell>
        <mxCell id="RXZ0eFl1-a3viZHCUMng-26" value="Yes" style="text;html=1;align=center;verticalAlign=middle;resizable=0;points=[];autosize=1;strokeColor=none;fillColor=none;" parent="1" vertex="1">
          <mxGeometry x="3245" y="910" width="38" height="26" as="geometry" />
        </mxCell>
        <mxCell id="RXZ0eFl1-a3viZHCUMng-43" style="edgeStyle=orthogonalEdgeStyle;rounded=0;orthogonalLoop=1;jettySize=auto;html=1;entryX=0.5;entryY=0;entryDx=0;entryDy=0;" parent="1" source="RXZ0eFl1-a3viZHCUMng-27" target="RXZ0eFl1-a3viZHCUMng-34" edge="1">
          <mxGeometry relative="1" as="geometry" />
        </mxCell>
        <mxCell id="RXZ0eFl1-a3viZHCUMng-27" value="Deinit GPS" style="rounded=1;whiteSpace=wrap;html=1;fillColor=#1ba1e2;fontColor=#ffffff;strokeColor=#006EAF;" parent="1" vertex="1">
          <mxGeometry x="2922" y="1245.7" width="128" height="54.12" as="geometry" />
        </mxCell>
        <mxCell id="RXZ0eFl1-a3viZHCUMng-40" style="edgeStyle=orthogonalEdgeStyle;rounded=0;orthogonalLoop=1;jettySize=auto;html=1;" parent="1" source="RXZ0eFl1-a3viZHCUMng-30" edge="1">
          <mxGeometry relative="1" as="geometry">
            <mxPoint x="2983" y="1158.829635281033" as="targetPoint" />
          </mxGeometry>
        </mxCell>
        <mxCell id="RXZ0eFl1-a3viZHCUMng-30" value="Get one point GPS data" style="rounded=1;whiteSpace=wrap;html=1;fillColor=#1ba1e2;fontColor=#ffffff;strokeColor=#006EAF;" parent="1" vertex="1">
          <mxGeometry x="2919" y="1080.7" width="128" height="54.12" as="geometry" />
        </mxCell>
        <mxCell id="RXZ0eFl1-a3viZHCUMng-41" style="edgeStyle=orthogonalEdgeStyle;rounded=0;orthogonalLoop=1;jettySize=auto;html=1;" parent="1" source="RXZ0eFl1-a3viZHCUMng-31" edge="1">
          <mxGeometry relative="1" as="geometry">
            <mxPoint x="2983" y="1244.7555555555555" as="targetPoint" />
          </mxGeometry>
        </mxCell>
        <mxCell id="RXZ0eFl1-a3viZHCUMng-31" value="Send data over SMS" style="rounded=1;whiteSpace=wrap;html=1;fillColor=#1ba1e2;fontColor=#ffffff;strokeColor=#006EAF;" parent="1" vertex="1">
          <mxGeometry x="2919" y="1159.7" width="128" height="54.12" as="geometry" />
        </mxCell>
        <mxCell id="RXZ0eFl1-a3viZHCUMng-34" value="TASK DELETE" style="rounded=1;whiteSpace=wrap;html=1;fillColor=#008a00;fontColor=#ffffff;strokeColor=#005700;" parent="1" vertex="1">
          <mxGeometry x="3089" y="1328.7" width="128" height="54.12" as="geometry" />
        </mxCell>
        <mxCell id="RXZ0eFl1-a3viZHCUMng-42" value="START TASK:&lt;br&gt;task_get_gps_data_one_time" style="whiteSpace=wrap;html=1;fillColor=#008a00;fontColor=#ffffff;strokeColor=#005700;" parent="1" vertex="1">
          <mxGeometry x="3061" y="670.7" width="178" height="60" as="geometry" />
        </mxCell>
        <mxCell id="RXZ0eFl1-a3viZHCUMng-45" style="edgeStyle=orthogonalEdgeStyle;rounded=0;orthogonalLoop=1;jettySize=auto;html=1;entryX=0.501;entryY=0.047;entryDx=0;entryDy=0;entryPerimeter=0;" parent="1" source="RXZ0eFl1-a3viZHCUMng-42" target="RXZ0eFl1-a3viZHCUMng-17" edge="1">
          <mxGeometry relative="1" as="geometry" />
        </mxCell>
        <mxCell id="RXZ0eFl1-a3viZHCUMng-46" style="edgeStyle=orthogonalEdgeStyle;rounded=0;orthogonalLoop=1;jettySize=auto;html=1;entryX=0.004;entryY=0.446;entryDx=0;entryDy=0;entryPerimeter=0;" parent="1" source="RXZ0eFl1-a3viZHCUMng-15" target="RXZ0eFl1-a3viZHCUMng-42" edge="1">
          <mxGeometry relative="1" as="geometry" />
        </mxCell>
        <mxCell id="RXZ0eFl1-a3viZHCUMng-47" value="START TASK:&lt;br&gt;task_log_data_into_file" style="whiteSpace=wrap;html=1;fillColor=#008a00;fontColor=#ffffff;strokeColor=#005700;" parent="1" vertex="1">
          <mxGeometry x="3700" y="388" width="178" height="60" as="geometry" />
        </mxCell>
        <mxCell id="RXZ0eFl1-a3viZHCUMng-55" style="edgeStyle=orthogonalEdgeStyle;rounded=0;orthogonalLoop=1;jettySize=auto;html=1;entryX=0;entryY=0.5;entryDx=0;entryDy=0;" parent="1" source="RXZ0eFl1-a3viZHCUMng-48" target="RXZ0eFl1-a3viZHCUMng-54" edge="1">
          <mxGeometry relative="1" as="geometry" />
        </mxCell>
        <mxCell id="RXZ0eFl1-a3viZHCUMng-58" style="edgeStyle=orthogonalEdgeStyle;rounded=0;orthogonalLoop=1;jettySize=auto;html=1;" parent="1" source="RXZ0eFl1-a3viZHCUMng-48" edge="1">
          <mxGeometry relative="1" as="geometry">
            <mxPoint x="2142.9999999999995" y="-6.777739025297706" as="targetPoint" />
          </mxGeometry>
        </mxCell>
        <mxCell id="RXZ0eFl1-a3viZHCUMng-48" value="START TASK:&lt;br&gt;task_resurse_monitor" style="whiteSpace=wrap;html=1;fillColor=#008a00;fontColor=#ffffff;strokeColor=#005700;" parent="1" vertex="1">
          <mxGeometry x="2054" y="-94" width="178" height="60" as="geometry" />
        </mxCell>
        <mxCell id="RXZ0eFl1-a3viZHCUMng-56" style="edgeStyle=orthogonalEdgeStyle;rounded=0;orthogonalLoop=1;jettySize=auto;html=1;" parent="1" source="RXZ0eFl1-a3viZHCUMng-49" edge="1">
          <mxGeometry relative="1" as="geometry">
            <mxPoint x="2315.2699381510415" y="26" as="targetPoint" />
          </mxGeometry>
        </mxCell>
        <mxCell id="RXZ0eFl1-a3viZHCUMng-59" style="edgeStyle=orthogonalEdgeStyle;rounded=0;orthogonalLoop=1;jettySize=auto;html=1;entryX=0.5;entryY=0;entryDx=0;entryDy=0;" parent="1" source="RXZ0eFl1-a3viZHCUMng-49" target="RXZ0eFl1-a3viZHCUMng-50" edge="1">
          <mxGeometry relative="1" as="geometry" />
        </mxCell>
        <mxCell id="RXZ0eFl1-a3viZHCUMng-49" value="START TASK:&lt;br&gt;task_bme280" style="whiteSpace=wrap;html=1;fillColor=#008a00;fontColor=#ffffff;strokeColor=#005700;" parent="1" vertex="1">
          <mxGeometry x="2054" y="-4" width="178" height="60" as="geometry" />
        </mxCell>
        <mxCell id="RXZ0eFl1-a3viZHCUMng-50" value="START TASK:&lt;br&gt;task_gsm" style="whiteSpace=wrap;html=1;fillColor=#008a00;fontColor=#ffffff;strokeColor=#005700;" parent="1" vertex="1">
          <mxGeometry x="2054" y="95.82" width="178" height="60" as="geometry" />
        </mxCell>
        <mxCell id="RXZ0eFl1-a3viZHCUMng-51" value="Sleep (Max power saving)" style="rounded=1;whiteSpace=wrap;html=1;" parent="1" vertex="1">
          <mxGeometry x="1472" y="949.58" width="128" height="54.12" as="geometry" />
        </mxCell>
        <mxCell id="RXZ0eFl1-a3viZHCUMng-52" value="SMS commands handller" style="rounded=1;whiteSpace=wrap;html=1;fillColor=#1ba1e2;fontColor=#ffffff;strokeColor=#006EAF;" parent="1" vertex="1">
          <mxGeometry x="2318" y="101.70000000000005" width="128" height="54.12" as="geometry" />
        </mxCell>
        <mxCell id="RXZ0eFl1-a3viZHCUMng-53" value="Print on COMport" style="rounded=1;whiteSpace=wrap;html=1;fillColor=#1ba1e2;fontColor=#ffffff;strokeColor=#006EAF;" parent="1" vertex="1">
          <mxGeometry x="2318" y="-1.0599999999999454" width="128" height="54.12" as="geometry" />
        </mxCell>
        <mxCell id="RXZ0eFl1-a3viZHCUMng-54" value="Print on COMport" style="rounded=1;whiteSpace=wrap;html=1;fillColor=#1ba1e2;fontColor=#ffffff;strokeColor=#006EAF;" parent="1" vertex="1">
          <mxGeometry x="2321" y="-91.05999999999995" width="128" height="54.12" as="geometry" />
        </mxCell>
        <mxCell id="RXZ0eFl1-a3viZHCUMng-60" style="edgeStyle=orthogonalEdgeStyle;rounded=0;orthogonalLoop=1;jettySize=auto;html=1;entryX=-0.016;entryY=0.436;entryDx=0;entryDy=0;entryPerimeter=0;" parent="1" source="RXZ0eFl1-a3viZHCUMng-50" target="RXZ0eFl1-a3viZHCUMng-52" edge="1">
          <mxGeometry relative="1" as="geometry" />
        </mxCell>
        <mxCell id="RXZ0eFl1-a3viZHCUMng-65" style="edgeStyle=orthogonalEdgeStyle;rounded=0;orthogonalLoop=1;jettySize=auto;html=1;entryX=0.477;entryY=-0.019;entryDx=0;entryDy=0;entryPerimeter=0;" parent="1" source="RXZ0eFl1-a3viZHCUMng-47" target="AnVQf3OLI9KUwn47Dejs-11" edge="1">
          <mxGeometry relative="1" as="geometry" />
        </mxCell>
        <mxCell id="1KMpHQk5PXUoUrPZShmF-3" style="edgeStyle=orthogonalEdgeStyle;rounded=0;orthogonalLoop=1;jettySize=auto;html=1;" parent="1" source="1KMpHQk5PXUoUrPZShmF-2" edge="1">
          <mxGeometry relative="1" as="geometry">
            <mxPoint x="2141" y="-94.66658528645848" as="targetPoint" />
          </mxGeometry>
        </mxCell>
        <mxCell id="1KMpHQk5PXUoUrPZShmF-2" value="START TASK:&lt;br&gt;task_blink&amp;nbsp; (LED)" style="whiteSpace=wrap;html=1;fillColor=#008a00;fontColor=#ffffff;strokeColor=#005700;" parent="1" vertex="1">
          <mxGeometry x="2052" y="-204" width="178" height="60" as="geometry" />
        </mxCell>
        <mxCell id="1KMpHQk5PXUoUrPZShmF-9" value="Command: wifiOFF" style="rounded=1;whiteSpace=wrap;html=1;fillColor=#a20025;fontColor=#ffffff;strokeColor=#6F0000;" parent="1" vertex="1">
          <mxGeometry x="2514.64" y="820" width="128" height="54.12" as="geometry" />
        </mxCell>
        <mxCell id="XQ3YXZ7YPKPwGHIfuHCA-3" value="" style="edgeStyle=none;curved=1;rounded=0;orthogonalLoop=1;jettySize=auto;html=1;fontSize=12;startSize=8;endSize=8;" parent="1" source="1KMpHQk5PXUoUrPZShmF-10" target="XQ3YXZ7YPKPwGHIfuHCA-2" edge="1">
          <mxGeometry relative="1" as="geometry" />
        </mxCell>
        <mxCell id="1KMpHQk5PXUoUrPZShmF-10" value="Command: wifiON" style="rounded=1;whiteSpace=wrap;html=1;fillColor=#a20025;fontColor=#ffffff;strokeColor=#6F0000;" parent="1" vertex="1">
          <mxGeometry x="2514.64" y="927.1400000000001" width="128" height="54.12" as="geometry" />
        </mxCell>
        <mxCell id="1KMpHQk5PXUoUrPZShmF-14" value="DeInit init_http_server&amp;nbsp;" style="rounded=1;whiteSpace=wrap;html=1;fillColor=#1ba1e2;fontColor=#ffffff;strokeColor=#006EAF;" parent="1" vertex="1">
          <mxGeometry x="2700.64" y="819.9999999999998" width="136" height="54" as="geometry" />
        </mxCell>
        <mxCell id="1KMpHQk5PXUoUrPZShmF-15" value="" style="endArrow=classic;html=1;rounded=0;exitX=1;exitY=0.5;exitDx=0;exitDy=0;entryX=0;entryY=0.5;entryDx=0;entryDy=0;" parent="1" source="1KMpHQk5PXUoUrPZShmF-9" target="1KMpHQk5PXUoUrPZShmF-14" edge="1">
          <mxGeometry width="50" height="50" relative="1" as="geometry">
            <mxPoint x="2886.64" y="1164.06" as="sourcePoint" />
            <mxPoint x="2700.64" y="800.06" as="targetPoint" />
          </mxGeometry>
        </mxCell>
        <mxCell id="1KMpHQk5PXUoUrPZShmF-21" value="Reset all devise" style="rounded=1;whiteSpace=wrap;html=1;fillColor=#f0a30a;fontColor=#000000;strokeColor=#BD7000;" parent="1" vertex="1">
          <mxGeometry x="2210" y="2263" width="108" height="35" as="geometry" />
        </mxCell>
        <mxCell id="1KMpHQk5PXUoUrPZShmF-26" value="2. Lantitude, Lontitude" style="rounded=0;whiteSpace=wrap;html=1;fillColor=#1ba1e2;fontColor=#ffffff;strokeColor=#006EAF;align=left;" parent="1" vertex="1">
          <mxGeometry x="2038" y="2413" width="144" height="24" as="geometry" />
        </mxCell>
        <mxCell id="1KMpHQk5PXUoUrPZShmF-32" value="3. Speed" style="rounded=0;whiteSpace=wrap;html=1;fillColor=#1ba1e2;fontColor=#ffffff;strokeColor=#006EAF;align=left;" parent="1" vertex="1">
          <mxGeometry x="2038" y="2446" width="144" height="24" as="geometry" />
        </mxCell>
        <mxCell id="1KMpHQk5PXUoUrPZShmF-33" value="4. Visible satellites" style="rounded=0;whiteSpace=wrap;html=1;fillColor=#1ba1e2;fontColor=#ffffff;strokeColor=#006EAF;align=left;" parent="1" vertex="1">
          <mxGeometry x="2038" y="2478" width="144" height="24" as="geometry" />
        </mxCell>
        <mxCell id="1KMpHQk5PXUoUrPZShmF-34" value="1. Time and date" style="rounded=0;whiteSpace=wrap;html=1;fillColor=#1ba1e2;fontColor=#ffffff;strokeColor=#006EAF;align=left;" parent="1" vertex="1">
          <mxGeometry x="2038" y="2382" width="144" height="24" as="geometry" />
        </mxCell>
        <mxCell id="1KMpHQk5PXUoUrPZShmF-35" value="" style="endArrow=none;html=1;rounded=0;" parent="1" edge="1">
          <mxGeometry width="50" height="50" relative="1" as="geometry">
            <mxPoint x="2038" y="2315" as="sourcePoint" />
            <mxPoint x="2488" y="2315" as="targetPoint" />
          </mxGeometry>
        </mxCell>
        <mxCell id="1KMpHQk5PXUoUrPZShmF-36" value="" style="endArrow=none;html=1;rounded=0;" parent="1" edge="1">
          <mxGeometry width="50" height="50" relative="1" as="geometry">
            <mxPoint x="2038" y="2518" as="sourcePoint" />
            <mxPoint x="2488" y="2518" as="targetPoint" />
          </mxGeometry>
        </mxCell>
        <mxCell id="1KMpHQk5PXUoUrPZShmF-37" value="battery charge (in %)" style="rounded=1;whiteSpace=wrap;html=1;fillColor=#6a00ff;fontColor=#ffffff;strokeColor=#3700CC;" parent="1" vertex="1">
          <mxGeometry x="2038" y="2263" width="151" height="35" as="geometry" />
        </mxCell>
        <mxCell id="1KMpHQk5PXUoUrPZShmF-38" value="" style="endArrow=none;html=1;rounded=0;" parent="1" edge="1">
          <mxGeometry width="50" height="50" relative="1" as="geometry">
            <mxPoint x="2038" y="2243" as="sourcePoint" />
            <mxPoint x="2488" y="2243" as="targetPoint" />
          </mxGeometry>
        </mxCell>
        <mxCell id="1KMpHQk5PXUoUrPZShmF-40" value="1. Status of GSM module" style="rounded=0;whiteSpace=wrap;html=1;fillColor=#fad9d5;strokeColor=#ae4132;align=left;" parent="1" vertex="1">
          <mxGeometry x="2196" y="2540.88" width="144" height="24" as="geometry" />
        </mxCell>
        <mxCell id="1KMpHQk5PXUoUrPZShmF-41" value="2. Signal quality&amp;nbsp;" style="rounded=0;whiteSpace=wrap;html=1;fillColor=#fad9d5;strokeColor=#ae4132;align=left;" parent="1" vertex="1">
          <mxGeometry x="2038.5" y="2540.88" width="144" height="24" as="geometry" />
        </mxCell>
        <mxCell id="1KMpHQk5PXUoUrPZShmF-42" value="" style="endArrow=none;html=1;rounded=0;" parent="1" edge="1">
          <mxGeometry width="50" height="50" relative="1" as="geometry">
            <mxPoint x="2035" y="2588.88" as="sourcePoint" />
            <mxPoint x="2485" y="2588.88" as="targetPoint" />
          </mxGeometry>
        </mxCell>
        <mxCell id="1KMpHQk5PXUoUrPZShmF-43" value="1. Temperature" style="rounded=0;whiteSpace=wrap;html=1;fillColor=#a0522d;fontColor=#ffffff;strokeColor=#6D1F00;align=left;" parent="1" vertex="1">
          <mxGeometry x="2038.5" y="2606.88" width="144" height="24" as="geometry" />
        </mxCell>
        <mxCell id="1KMpHQk5PXUoUrPZShmF-44" value="2. Humidity" style="rounded=0;whiteSpace=wrap;html=1;fillColor=#a0522d;fontColor=#ffffff;strokeColor=#6D1F00;align=left;" parent="1" vertex="1">
          <mxGeometry x="2196" y="2606.88" width="144" height="24" as="geometry" />
        </mxCell>
        <mxCell id="1KMpHQk5PXUoUrPZShmF-45" value="" style="endArrow=none;html=1;rounded=0;" parent="1" edge="1">
          <mxGeometry width="50" height="50" relative="1" as="geometry">
            <mxPoint x="2035" y="2648.88" as="sourcePoint" />
            <mxPoint x="2485" y="2648.88" as="targetPoint" />
          </mxGeometry>
        </mxCell>
        <mxCell id="1KMpHQk5PXUoUrPZShmF-46" value="" style="endArrow=none;html=1;rounded=0;" parent="1" edge="1">
          <mxGeometry width="50" height="50" relative="1" as="geometry">
            <mxPoint x="2035" y="2785" as="sourcePoint" />
            <mxPoint x="2485" y="2785" as="targetPoint" />
          </mxGeometry>
        </mxCell>
        <mxCell id="1KMpHQk5PXUoUrPZShmF-47" value="СПИСОК ФАЙЛІВ НА ФЛЕШЦІ" style="rounded=0;whiteSpace=wrap;html=1;fillColor=#d5e8d4;strokeColor=#82b366;align=left;gradientColor=#97d077;" parent="1" vertex="1">
          <mxGeometry x="2038.5" y="2676.88" width="281.5" height="24" as="geometry" />
        </mxCell>
        <mxCell id="1KMpHQk5PXUoUrPZShmF-49" value="СПИСОК ФАЙЛІВ НА ФЛЕШЦІ" style="rounded=0;whiteSpace=wrap;html=1;fillColor=#d5e8d4;strokeColor=#82b366;align=left;gradientColor=#97d077;" parent="1" vertex="1">
          <mxGeometry x="2038.5" y="2711" width="281.5" height="24" as="geometry" />
        </mxCell>
        <mxCell id="1KMpHQk5PXUoUrPZShmF-50" value="СПИСОК ФАЙЛІВ НА ФЛЕШЦІ" style="rounded=0;whiteSpace=wrap;html=1;fillColor=#d5e8d4;strokeColor=#82b366;align=left;gradientColor=#97d077;" parent="1" vertex="1">
          <mxGeometry x="2038.5" y="2747" width="281.5" height="24" as="geometry" />
        </mxCell>
        <mxCell id="Ps3f9kTV6TuF1DMtuvnd-1" value="logON" style="rounded=1;whiteSpace=wrap;html=1;fillColor=#1ba1e2;fontColor=#ffffff;strokeColor=#006EAF;" parent="1" vertex="1">
          <mxGeometry x="2038.5" y="2328" width="108" height="35" as="geometry" />
        </mxCell>
        <mxCell id="Ps3f9kTV6TuF1DMtuvnd-2" value="logOFF" style="rounded=1;whiteSpace=wrap;html=1;fillColor=#1ba1e2;fontColor=#ffffff;strokeColor=#006EAF;" parent="1" vertex="1">
          <mxGeometry x="2160" y="2328" width="108" height="35" as="geometry" />
        </mxCell>
        <mxCell id="Ps3f9kTV6TuF1DMtuvnd-3" value="3. Preasure" style="rounded=0;whiteSpace=wrap;html=1;fillColor=#a0522d;fontColor=#ffffff;strokeColor=#6D1F00;align=left;" parent="1" vertex="1">
          <mxGeometry x="2358" y="2606.88" width="144" height="24" as="geometry" />
        </mxCell>
        <mxCell id="FT71T9a5wPRqqTNPqdEj-2" value="One point&amp;nbsp;" style="rounded=1;whiteSpace=wrap;html=1;fillColor=#1ba1e2;fontColor=#ffffff;strokeColor=#006EAF;" parent="1" vertex="1">
          <mxGeometry x="2310" y="2328" width="108" height="35" as="geometry" />
        </mxCell>
        <mxCell id="XQ3YXZ7YPKPwGHIfuHCA-5" value="" style="edgeStyle=none;curved=1;rounded=0;orthogonalLoop=1;jettySize=auto;html=1;fontSize=12;startSize=8;endSize=8;" parent="1" source="XQ3YXZ7YPKPwGHIfuHCA-2" target="XQ3YXZ7YPKPwGHIfuHCA-4" edge="1">
          <mxGeometry relative="1" as="geometry" />
        </mxCell>
        <mxCell id="XQ3YXZ7YPKPwGHIfuHCA-2" value="init_http_server&amp;nbsp;" style="rounded=1;whiteSpace=wrap;html=1;fillColor=#1ba1e2;fontColor=#ffffff;strokeColor=#006EAF;" parent="1" vertex="1">
          <mxGeometry x="2696.64" y="927.2599999999998" width="136" height="54" as="geometry" />
        </mxCell>
        <mxCell id="XQ3YXZ7YPKPwGHIfuHCA-7" value="" style="edgeStyle=none;curved=1;rounded=0;orthogonalLoop=1;jettySize=auto;html=1;fontSize=12;startSize=8;endSize=8;" parent="1" source="XQ3YXZ7YPKPwGHIfuHCA-4" target="XQ3YXZ7YPKPwGHIfuHCA-6" edge="1">
          <mxGeometry relative="1" as="geometry" />
        </mxCell>
        <mxCell id="XQ3YXZ7YPKPwGHIfuHCA-4" value="Connect to WiFi router" style="rounded=1;whiteSpace=wrap;html=1;fillColor=#1ba1e2;fontColor=#ffffff;strokeColor=#006EAF;" parent="1" vertex="1">
          <mxGeometry x="2696.64" y="1023.9999999999998" width="136" height="54" as="geometry" />
        </mxCell>
        <mxCell id="XQ3YXZ7YPKPwGHIfuHCA-6" value="Show/inrerrucr all data and file on connected devise (browser)" style="rounded=1;whiteSpace=wrap;html=1;fillColor=#1ba1e2;fontColor=#ffffff;strokeColor=#006EAF;" parent="1" vertex="1">
          <mxGeometry x="2696.64" y="1116.9999999999998" width="136" height="54" as="geometry" />
        </mxCell>
        <mxCell id="uzd06mf54Hrozhbkd267-1" value="RTC3231M" style="rounded=1;whiteSpace=wrap;html=1;fillColor=#66B2FF;fontColor=#ffffff;strokeColor=#3A5431;" vertex="1" parent="1">
          <mxGeometry x="747" y="711" width="107" height="68.3" as="geometry" />
        </mxCell>
        <mxCell id="uzd06mf54Hrozhbkd267-2" value="" style="shape=flexArrow;endArrow=classic;html=1;rounded=0;" edge="1" parent="1">
          <mxGeometry width="50" height="50" relative="1" as="geometry">
            <mxPoint x="654" y="746" as="sourcePoint" />
            <mxPoint x="747" y="746" as="targetPoint" />
          </mxGeometry>
        </mxCell>
        <mxCell id="uzd06mf54Hrozhbkd267-3" value="" style="shape=flexArrow;endArrow=classic;html=1;rounded=0;" edge="1" parent="1">
          <mxGeometry width="50" height="50" relative="1" as="geometry">
            <mxPoint x="655" y="872.8199999999999" as="sourcePoint" />
            <mxPoint x="748" y="872.8199999999999" as="targetPoint" />
          </mxGeometry>
        </mxCell>
        <mxCell id="uzd06mf54Hrozhbkd267-4" value="" style="shape=flexArrow;endArrow=classic;html=1;rounded=0;" edge="1" parent="1">
          <mxGeometry width="50" height="50" relative="1" as="geometry">
            <mxPoint x="827" y="826.8599999999999" as="sourcePoint" />
            <mxPoint x="920" y="826.8599999999999" as="targetPoint" />
          </mxGeometry>
        </mxCell>
        <mxCell id="uzd06mf54Hrozhbkd267-5" value="Red, Green, Blue LEDs" style="rounded=1;whiteSpace=wrap;html=1;fillColor=#6d8764;fontColor=#ffffff;strokeColor=#3A5431;" vertex="1" parent="1">
          <mxGeometry x="919" y="794.8800000000001" width="63" height="57.31" as="geometry" />
        </mxCell>
        <mxCell id="uzd06mf54Hrozhbkd267-6" value="Button" style="rounded=1;whiteSpace=wrap;html=1;fillColor=#6d8764;fontColor=#ffffff;strokeColor=#3A5431;" vertex="1" parent="1">
          <mxGeometry x="922" y="869.95" width="63" height="57.31" as="geometry" />
        </mxCell>
        <mxCell id="uzd06mf54Hrozhbkd267-7" value="" style="shape=flexArrow;endArrow=classic;html=1;rounded=0;" edge="1" parent="1">
          <mxGeometry width="50" height="50" relative="1" as="geometry">
            <mxPoint x="829" y="901.9999999999999" as="sourcePoint" />
            <mxPoint x="922" y="901.9999999999999" as="targetPoint" />
          </mxGeometry>
        </mxCell>
        <mxCell id="uzd06mf54Hrozhbkd267-8" value="" style="shape=flexArrow;endArrow=classic;html=1;rounded=0;" edge="1" parent="1">
          <mxGeometry width="50" height="50" relative="1" as="geometry">
            <mxPoint x="656" y="986.8299999999999" as="sourcePoint" />
            <mxPoint x="749" y="986.8299999999999" as="targetPoint" />
          </mxGeometry>
        </mxCell>
      </root>
    </mxGraphModel>
  </diagram>
</mxfile>
